<?xml version="1.0" standalone="no"?>
<!DOCTYPE svg PUBLIC "-//W3C//DTD SVG 20010904//EN"
 "http://www.w3.org/TR/2001/REC-SVG-20010904/DTD/svg10.dtd">
<svg version="1.0" xmlns="http://www.w3.org/2000/svg"
 width="1671.000000pt" height="449.000000pt" viewBox="0 0 1671.000000 449.000000"
 preserveAspectRatio="xMidYMid meet">

<g transform="translate(0.000000,449.000000) scale(0.100000,-0.100000)"
fill="#ff8900" stroke="none">
<path d="M14152 4460 c-324 -49 -595 -147 -871 -314 -173 -105 -391 -292 -527
-451 -225 -266 -388 -581 -473 -920 -56 -220 -79 -481 -61 -695 16 -196 39
-315 102 -530 52 -179 201 -475 307 -611 210 -270 371 -424 596 -576 84 -56
237 -139 325 -176 185 -78 301 -115 455 -147 273 -57 435 -28 565 100 180 178
182 458 3 632 -91 89 -184 127 -310 128 -137 0 -381 86 -548 192 -189 120
-368 321 -473 533 -91 184 -131 337 -139 540 -10 255 32 458 140 675 71 142
135 229 257 351 224 225 461 344 782 394 123 19 216 19 365 0 302 -38 571
-171 784 -387 294 -299 422 -675 380 -1110 -19 -188 8 -298 97 -394 76 -82
142 -120 261 -150 52 -13 74 -14 129 -4 167 29 285 119 354 269 23 51 31 86
38 175 24 283 4 591 -50 786 -31 113 -52 187 -59 205 -5 11 -19 47 -31 80
-140 367 -428 746 -744 979 -303 223 -637 363 -1008 422 -161 25 -492 28 -646
4z"/>
<path d="M10080 4446 c-297 -46 -541 -162 -739 -351 -217 -208 -322 -443 -337
-755 -10 -201 17 -371 85 -530 52 -120 116 -212 218 -311 195 -191 422 -302
1027 -504 378 -126 528 -197 650 -307 47 -42 74 -78 98 -126 32 -64 33 -71 33
-187 0 -145 -23 -224 -90 -313 -106 -139 -276 -222 -519 -252 -333 -42 -600
50 -801 275 -227 254 -292 301 -413 293 -90 -6 -146 -35 -241 -123 -101 -96
-136 -158 -136 -245 0 -55 6 -76 38 -140 163 -327 571 -623 1002 -725 612
-146 1339 74 1662 503 170 225 241 473 230 802 -7 225 -39 360 -119 510 -187
350 -484 527 -1276 759 -217 64 -413 137 -487 182 -156 92 -224 195 -233 350
-13 239 134 424 393 494 90 25 270 30 392 11 184 -28 297 -85 460 -230 109
-98 188 -138 276 -139 76 -1 127 23 205 97 104 98 182 227 182 300 0 55 -12
83 -66 162 -116 165 -379 344 -627 425 -189 62 -310 80 -557 84 -154 3 -252 0
-310 -9z"/>
<path d="M255 4389 c-132 -19 -199 -70 -232 -176 -17 -55 -18 -160 -18 -1933
0 -1565 2 -1884 14 -1929 16 -62 64 -122 121 -151 91 -47 311 -52 422 -11 65
25 129 88 150 147 17 52 25 3731 8 3836 -16 94 -55 152 -123 183 -87 40 -213
52 -342 34z"/>
<path d="M1397 4386 c-129 -35 -173 -126 -165 -342 4 -94 8 -119 29 -160 31
-60 87 -101 158 -114 32 -6 294 -10 657 -10 l604 0 2 -1697 c3 -1387 6 -1705
17 -1738 18 -55 87 -118 152 -141 73 -26 311 -26 378 0 96 36 140 91 160 201
8 41 11 562 11 1716 l0 1658 638 3 c699 3 677 1 736 64 45 49 61 115 61 249
-1 176 -28 246 -115 295 l-45 25 -1615 2 c-1304 1 -1624 -1 -1663 -11z"/>
<path d="M5661 4390 c-127 -19 -205 -80 -238 -187 -17 -55 -18 -155 -18 -1928
0 -1739 1 -1874 17 -1925 21 -65 66 -123 117 -149 101 -52 346 -54 446 -4 53
27 105 85 123 138 14 44 17 118 20 633 l3 582 458 0 c424 0 459 -1 473 -17 8
-10 194 -290 414 -622 239 -363 420 -626 451 -658 28 -29 71 -62 95 -73 117
-53 263 5 429 170 60 59 78 85 88 122 16 58 9 115 -23 185 -14 28 -173 278
-356 554 -182 276 -329 506 -328 510 2 4 41 35 88 70 386 285 599 783 560
1309 -18 237 -62 398 -157 580 -93 177 -186 293 -326 405 -148 119 -314 203
-494 251 -217 58 -187 56 -1018 59 -423 2 -794 0 -824 -5z m1614 -748 c128
-35 200 -77 290 -167 87 -87 130 -160 162 -276 14 -50 18 -101 17 -239 0 -161
-2 -181 -26 -252 -73 -217 -213 -360 -408 -414 -59 -17 -117 -18 -620 -19
l-555 0 -3 685 c-1 377 0 691 3 698 4 11 102 13 532 10 506 -4 531 -5 608 -26z"/>
<path d="M14618 2325 c-222 -61 -359 -280 -319 -509 12 -71 55 -158 108 -223
73 -88 195 -240 342 -423 85 -107 158 -197 161 -200 3 -3 43 -52 89 -109 46
-57 131 -163 190 -235 151 -188 309 -384 350 -434 77 -94 224 -162 347 -162
118 0 237 54 319 142 59 64 86 114 110 204 32 125 4 256 -79 369 -31 42 -177
226 -186 235 -3 3 -43 52 -89 109 -639 794 -877 1087 -899 1109 -119 118 -296
168 -444 127z"/>
</g>
</svg>
